Coordinates
version=1
nRows=8
nColumns=36
inDegrees=yes

Units are S.I. units (second, meters, Newtons, ...)
If the header above contains a line with 'inDegrees', this indicates whether rotational values are in degrees (yes) or radians (no).

endheader
time	pelvis_tilt	pelvis_list	pelvis_rotation	pelvis_tx	pelvis_ty	pelvis_tz	hip_flexion_r	hip_adduction_r	hip_rotation_r	knee_angle_r	knee_angle_r_beta	ankle_angle_r	subtalar_angle_r	mtp_angle_r	hip_flexion_l	hip_adduction_l	hip_rotation_l	knee_angle_l	knee_angle_l_beta	ankle_angle_l	subtalar_angle_l	mtp_angle_l	lumbar_extension	lumbar_bending	lumbar_rotation	arm_flex_r	arm_add_r	arm_rot_r	elbow_flex_r	pro_sup_r	arm_flex_l	arm_add_l	arm_rot_l	elbow_flex_l	pro_sup_l
      2.48333330	     25.88167865	      5.05578227	      3.76509969	      0.18084984	      1.20585412	      0.18468778	    -29.12097623	      0.64932998	     -2.27529434	      3.84917712	      0.06718081	     12.45964323	    -11.88506698	     -7.49999987	    -29.84183834	      3.02090719	     -6.83572577	      4.09057571	      0.07139401	     15.67261427	      2.17188984	     -7.49999987	    -44.72707377	     -1.27576025	      1.78519214	     12.79493244	     -4.38248722	      6.16937265	     22.80028704	     76.82964006	     12.27016205	     -6.04968268	     12.50753161	     23.12345953	     66.99108099
      2.50000000	     25.78622618	      5.01675472	      3.77593442	      0.18066175	      1.20470213	      0.18465729	    -29.07146753	      0.71180890	     -2.16689900	      3.67346696	      0.06411409	     12.52136804	    -11.99257075	     -7.49999987	    -29.84352727	      3.00003487	     -6.64138149	      3.73244727	      0.06514349	     15.66476594	      1.96393062	     -7.49999987	    -44.64558344	     -1.23276981	      1.82209378	     12.78117000	     -4.42591746	      5.74973024	     22.83911547	     78.41414719	     12.28790459	     -6.10720535	     12.44596716	     23.16276967	     68.14840326
      2.51666670	     25.70926414	      4.95235522	      3.69828084	      0.18057696	      1.20473787	      0.18397398	    -28.97143717	      0.74580752	     -1.95868200	      3.62128097	      0.06320328	     12.67630571	    -11.96750637	     -7.49999987	    -29.84680895	      2.98522644	     -6.82997295	      3.41638489	      0.05962716	     15.85203221	      2.25123026	     -7.49999987	    -44.59499624	     -1.21310882	      1.86420397	     12.89176610	     -4.49624236	      6.15312985	     22.83015366	     77.00797645	     12.37116287	     -6.17692345	     12.93282407	     23.08669692	     67.49330865
      2.53333330	     25.63204880	      4.89359485	      3.64222724	      0.18124935	      1.20520850	      0.18413732	    -28.88020164	      0.78614581	     -1.81862190	      3.62869309	      0.06333264	     12.71640818	    -11.99996662	     -7.49999987	    -29.84901574	      2.95031132	     -6.94196812	      3.14002886	      0.05480384	     15.91060337	      2.42543211	     -7.49999987	    -44.56547608	     -1.21227697	      1.95719957	     12.90418489	     -4.48246993	      5.41361043	     22.91461563	     78.84489599	     12.46747948	     -6.15471280	     12.80829744	     23.06457270	     68.65750202
      2.55000000	     25.66859928	      4.93681581	      3.75437184	      0.18005403	      1.20685022	      0.18465544	    -28.86754705	      0.80216980	     -2.21451490	      3.66818807	      0.06402196	     13.01250512	    -11.52857072	     -7.49999987	    -29.84733988	      2.92532726	     -6.67900792	      3.15277166	      0.05502625	     15.90548254	      2.18866699	     -7.49999987	    -44.66248645	     -1.17546236	      1.83822658	     12.97681462	     -4.45882881	      5.15925430	     22.94962259	     79.10728240	     12.53737475	     -6.20848765	     12.93372708	     23.16041204	     69.03974781
      2.56666670	     25.71947012	      4.93041740	      3.69436097	      0.18145164	      1.20668236	      0.18481008	    -28.91447122	      0.80592035	     -1.92854282	      3.60217129	      0.06286975	     12.77607133	    -11.92967928	     -7.49999987	    -29.84599390	      2.90667239	     -6.75043451	      3.26238692	      0.05693939	     15.84389517	      2.11380398	     -7.49999987	    -44.74105100	     -1.20813880	      1.94743314	     12.99646474	     -4.52364230	      5.44119500	     23.05850587	     77.65928302	     12.61164206	     -6.20567189	     13.19784706	     23.28541975	     68.29375902
      2.58333330	     25.68645602	      4.87247028	      3.63087621	      0.18243201	      1.20603464	      0.18499863	    -28.84488864	      0.83149639	     -1.97940839	      3.60943304	      0.06299649	     12.89528666	    -11.68127100	     -7.49999987	    -29.84699678	      2.86319510	     -7.07235262	      3.23688535	      0.05649431	     15.92505552	      2.53693535	     -7.49999987	    -44.68982452	     -1.21799192	      2.02545324	     13.01118583	     -4.58509195	      5.76154060	     23.13212771	     76.79811046	     12.66956550	     -6.23495614	     13.62298641	     23.36108883	     68.05653630
      2.60000000	     25.64844969	      4.88026458	      3.75275457	      0.18319566	      1.20593340	      0.18515202	    -28.87062497	      0.87583690	     -2.10843009	      3.53667022	      0.06172654	     12.85568605	    -11.52687955	     -7.49999987	    -29.84715340	      2.79415372	     -6.83754469	      3.29799737	      0.05756091	     15.78331886	      2.38518060	     -7.49999987	    -44.63366867	     -1.15431043	      1.93020306	     13.00848513	     -4.55192897	      5.71787896	     23.18189164	     76.07539007	     12.73317877	     -6.23566197	     13.74059568	     23.37762468	     67.78894231
